<svg width="16" height="16" viewBox="0 0 16 16" fill="none" xmlns="http://www.w3.org/2000/svg">
<path d="M16 11.5333C16 12.3433 15.3177 13 14.4762 13H1.52381C0.682286 13 0 12.3433 0 11.5333V3.46667C0 2.6567 0.682286 2 1.52381 2H14.4762C15.3177 2 16 2.6567 16 3.46667V11.5333Z" fill="#1976D2"/>
<path d="M7.33523 6.03333L6.53028 7.75043L5.72914 6.03333H4.70247V8.49953L3.55847 6.03333H2.69218L1.5238 8.59303H2.21523L2.47085 8.02176H3.77828L4.03809 8.59303H5.35809V6.69186L6.2339 8.59303H6.82933L7.72495 6.72486V8.59303H8.38095V6.03333H7.33523ZM2.71809 7.46883L3.10895 6.57416L3.51504 7.46883H2.71809Z" fill="white"/>
<path d="M13.2888 7.28476L14.4762 6.03993H13.6316L12.872 6.83339L12.1371 6.03333H9.5238V8.59339H12.0514L12.8484 7.74602L13.6255 8.59999H14.4674L13.2888 7.28476ZM11.7059 8.05586H10.1779V7.54949H11.64V7.06439H10.1779V6.58479L11.7909 6.58919L12.4358 7.28476L11.7059 8.05586Z" fill="white"/>
</svg>
