<svg width="16" height="16" viewBox="0 0 16 16" fill="none" xmlns="http://www.w3.org/2000/svg">
<path d="M16 11.5333C16 12.34 15.3143 13 14.4762 13H1.52381C0.685714 13 0 12.34 0 11.5333V3.46667C0 2.66 0.685714 2 1.52381 2H14.4762C15.3143 2 16 2.66 16 3.46667V11.5333Z" fill="#E1E7EA"/>
<path d="M16 11.5333C16 12.34 15.3143 13 14.4762 13H4.95238C4.95238 13 13.9429 11.6067 16 7.49999V11.5333ZM7.23809 7.49999C7.23809 8.12333 7.73333 8.59999 8.38095 8.59999C9.02857 8.59999 9.52381 8.12333 9.52381 7.49999C9.52381 6.87666 9.02857 6.39999 8.38095 6.39999C7.73333 6.39999 7.23809 6.87666 7.23809 7.49999Z" fill="#FF6D00"/>
<path d="M3.12381 6.40001H3.54285V8.60001H3.12381V6.40001ZM5.40952 7.50001C5.40952 8.12334 5.90476 8.60001 6.55238 8.60001C6.74285 8.60001 6.89523 8.56334 7.08571 8.49001V8.01334C6.93333 8.16001 6.78095 8.23334 6.55238 8.23334C6.13333 8.23334 5.82857 7.94001 5.82857 7.50001C5.82857 7.09668 6.13333 6.76668 6.55238 6.76668C6.74285 6.76668 6.89523 6.84001 7.08571 6.98668V6.51001C6.89523 6.43668 6.74285 6.36334 6.55238 6.36334C5.90476 6.40001 5.40952 6.91334 5.40952 7.50001ZM10.5143 7.83001L9.90476 6.40001H9.44761L10.4 8.60001H10.6286L11.5809 6.40001H11.1238L10.5143 7.83001ZM11.7714 8.60001H12.9905V8.23334H12.1905V7.64668H12.9524V7.28001H12.1905V6.76668H12.9905V6.40001H11.7714V8.60001ZM14.6667 7.06001C14.6667 6.65668 14.4 6.40001 13.9048 6.40001H13.2571V8.60001H13.6762V7.72001H13.7143L14.3238 8.60001H14.8571L14.1714 7.68334C14.4762 7.61001 14.6667 7.39001 14.6667 7.06001ZM13.7905 7.42668H13.6762V6.76668H13.7905C14.0571 6.76668 14.2095 6.87668 14.2095 7.09668C14.2095 7.28001 14.0952 7.42668 13.7905 7.42668ZM1.79047 6.40001H1.14285V8.60001H1.75238C2.70476 8.60001 2.93333 7.83001 2.93333 7.50001C2.97142 6.84001 2.47619 6.40001 1.79047 6.40001ZM1.67619 8.23334H1.5619V6.76668H1.71428C2.28571 6.76668 2.51428 7.13334 2.51428 7.50001C2.51428 7.64668 2.47619 8.23334 1.67619 8.23334ZM4.68571 7.24334C4.41904 7.13334 4.34285 7.09668 4.34285 6.98668C4.34285 6.84001 4.49523 6.76668 4.64761 6.76668C4.7619 6.76668 4.87619 6.80334 4.99047 6.95001L5.21904 6.65668C5.02857 6.47334 4.83809 6.40001 4.57142 6.40001C4.19047 6.40001 3.88571 6.65668 3.88571 7.02334C3.88571 7.31668 4.03809 7.46334 4.41904 7.61001C4.64761 7.68334 4.83809 7.75668 4.83809 7.94001C4.83809 8.12334 4.68571 8.23334 4.49523 8.23334C4.30476 8.23334 4.11428 8.12334 4.03809 7.94001L3.77142 8.19668C3.9619 8.49001 4.19047 8.60001 4.53333 8.60001C4.99047 8.60001 5.29523 8.30668 5.29523 7.90334C5.29523 7.57334 5.14285 7.42668 4.68571 7.24334Z" fill="black"/>
</svg>
