<svg width="16" height="16" viewBox="0 0 16 16" fill="none" xmlns="http://www.w3.org/2000/svg">
<path d="M16 11.5333C16 12.3433 15.3177 13 14.4762 13H1.52381C0.682286 13 0 12.3433 0 11.5333V3.46667C0 2.6567 0.682286 2 1.52381 2H14.4762C15.3177 2 16 2.6567 16 3.46667V11.5333Z" fill="#3F51B5"/>
<path d="M10.2857 11.1667C12.3897 11.1667 14.0952 9.52505 14.0952 7.50001C14.0952 5.47497 12.3897 3.83334 10.2857 3.83334C8.18178 3.83334 6.4762 5.47497 6.4762 7.50001C6.4762 9.52505 8.18178 11.1667 10.2857 11.1667Z" fill="#FFC107"/>
<path d="M7.24342 9.70001C7.06666 9.47378 6.91466 9.22921 6.79542 8.96668H8.82399C8.9299 8.73348 9.01295 8.48854 9.06666 8.23334H6.55314C6.50285 7.99648 6.47618 7.75154 6.47618 7.50001H9.14285C9.14285 7.24848 9.11618 7.00354 9.06628 6.76668H6.55276C6.60685 6.51148 6.68952 6.26654 6.79542 6.03334H8.82399C8.70476 5.77081 8.55314 5.52624 8.37599 5.30001H7.24342C7.4099 5.08734 7.59771 4.88861 7.80761 4.71518C7.14171 4.16664 6.27847 3.83334 5.33333 3.83334C3.22933 3.83334 1.5238 5.47491 1.5238 7.50001C1.5238 9.52511 3.22933 11.1667 5.33333 11.1667C6.57866 11.1667 7.68076 10.5892 8.37561 9.70001H7.24342Z" fill="#FF3D00"/>
</svg>
