<svg width="16" height="16" viewBox="0 0 16 16" fill="none" xmlns="http://www.w3.org/2000/svg">
<path d="M16 11.5333C16 12.3433 15.3177 13 14.4762 13H1.52381C0.682286 13 0 12.3433 0 11.5333V3.46667C0 2.6567 0.682286 2 1.52381 2H14.4762C15.3177 2 16 2.6567 16 3.46667V11.5333Z" fill="#1565C0"/>
<path d="M4.64228 5.6673L3.6419 8.53903C3.6419 8.53903 3.38781 7.32426 3.36266 7.17173C2.79314 5.92103 1.95276 5.9907 1.95276 5.9907L2.94323 9.70063V9.6999H4.14743L5.81257 5.6673H4.64228Z" fill="white"/>
<path d="M5.59582 9.69999H6.68954L7.35087 5.66666H6.24344L5.59582 9.69999Z" fill="white"/>
<path d="M13.3364 5.66666H12.1855L10.3912 9.69999H11.4777L11.7017 9.12396H13.0716L13.1882 9.69999H14.1836L13.3364 5.66666ZM12.0049 8.35359L12.6004 6.82936L12.912 8.35359H12.0049Z" fill="white"/>
<path d="M8.90249 6.84219C8.90249 6.61999 9.09221 6.45462 9.63621 6.45462C9.98973 6.45462 10.3947 6.70176 10.3947 6.70176L10.5722 5.85512C10.5722 5.85512 10.0549 5.66629 9.54706 5.66629C8.39697 5.66629 7.80383 6.19576 7.80383 6.86602C7.80383 8.07822 9.31964 7.91212 9.31964 8.53472C9.31964 8.64142 9.23164 8.88819 8.6004 8.88819C7.96726 8.88819 7.54935 8.66489 7.54935 8.66489L7.36078 9.47742C7.36078 9.47742 7.76573 9.69962 8.54821 9.69962C9.33259 9.69962 10.4206 9.13496 10.4206 8.32389C10.4206 7.34819 8.90249 7.27779 8.90249 6.84219Z" fill="white"/>
<path d="M3.50934 7.8465L3.14134 6.10557C3.14134 6.10557 2.97487 5.72827 2.54211 5.72827C2.10934 5.72827 0.850677 5.72827 0.850677 5.72827C0.850677 5.72827 3.00725 6.34134 3.50934 7.8465Z" fill="#FFC107"/>
</svg>
